<svg width="24" height="25" viewBox="0 0 24 25" fill="none" xmlns="http://www.w3.org/2000/svg">
    <path
        d="M12 2.28003C9.81276 2.28261 7.71584 3.15263 6.16923 4.69925C4.62261 6.24586 3.75259 8.34279 3.75001 10.53C3.74739 12.3174 4.33124 14.0564 5.41201 15.48C5.41201 15.48 5.63701 15.7763 5.67376 15.819L12 23.28L18.3293 15.8153C18.3623 15.7755 18.588 15.48 18.588 15.48L18.5888 15.4778C19.669 14.0547 20.2526 12.3166 20.25 10.53C20.2474 8.34279 19.3774 6.24586 17.8308 4.69925C16.2842 3.15263 14.1873 2.28261 12 2.28003ZM12 13.53C11.4067 13.53 10.8266 13.3541 10.3333 13.0244C9.83995 12.6948 9.45543 12.2263 9.22837 11.6781C9.00131 11.1299 8.9419 10.5267 9.05765 9.94476C9.17341 9.36282 9.45913 8.82827 9.87869 8.40871C10.2982 7.98915 10.8328 7.70343 11.4147 7.58767C11.9967 7.47192 12.5999 7.53133 13.1481 7.75839C13.6962 7.98545 14.1648 8.36997 14.4944 8.86332C14.8241 9.35667 15 9.93669 15 10.53C14.999 11.3254 14.6826 12.0879 14.1202 12.6503C13.5578 13.2126 12.7954 13.529 12 13.53Z"
        fill="white" />
</svg>