<svg width="21" height="20" viewBox="0 0 21 20" fill="none" xmlns="http://www.w3.org/2000/svg">
<g clip-path="url(#clip0_169_916)">
<path d="M20.3795 10.1333C20.3795 9.64444 20.2129 9.23333 19.8795 8.9C19.5462 8.56666 19.1351 8.4 18.6462 8.4H3.51285V3C3.51285 2.55555 3.66841 2.17777 3.97952 1.86666C4.20174 1.64444 4.45729 1.51111 4.74618 1.46666C5.03507 1.42222 5.33507 1.44444 5.64618 1.53333C5.24618 2.15555 5.09063 2.84444 5.17952 3.6C5.26841 4.35555 5.57952 5 6.11285 5.53333L6.24618 5.73333C6.37952 5.82222 6.52396 5.86666 6.67952 5.86666C6.83507 5.86666 6.95729 5.82222 7.04618 5.73333L10.8462 1.93333C10.9795 1.8 11.0462 1.65555 11.0462 1.5C11.0462 1.34444 10.9795 1.2 10.8462 1.06666L10.7129 0.933331C10.1351 0.355553 9.43507 0.0444412 8.61285 -3.8147e-06C7.79063 -0.0444469 7.06841 0.177774 6.44618 0.666664C5.91285 0.355553 5.33507 0.23333 4.71285 0.299997C4.09063 0.366663 3.55729 0.622219 3.11285 1.06666C2.57952 1.6 2.31285 2.24444 2.31285 3V8.4H2.11285C1.62396 8.4 1.21285 8.56666 0.879517 8.9C0.546183 9.23333 0.379517 9.64444 0.379517 10.1333C0.379517 10.5333 0.490628 10.8778 0.71285 11.1667C0.935072 11.4556 1.20174 11.6667 1.51285 11.8V13.0667C1.51285 14.1333 1.80174 15.1111 2.37952 16C2.95729 16.8889 3.69063 17.5778 4.57952 18.0667L4.04618 19.1333C3.95729 19.3111 3.94618 19.4667 4.01285 19.6C4.07952 19.7333 4.17952 19.8444 4.31285 19.9333C4.44618 20.0222 4.59063 20.0333 4.74618 19.9667C4.90174 19.9 5.02396 19.8 5.11285 19.6667L5.71285 18.4667C6.15729 18.5556 6.62396 18.6 7.11285 18.6H13.6462C14.1351 18.6 14.6017 18.5556 15.0462 18.4667L15.6462 19.6667C15.7351 19.8 15.8573 19.9 16.0129 19.9667C16.1684 20.0333 16.3129 20.0222 16.4462 19.9333C16.5795 19.8444 16.6795 19.7333 16.7462 19.6C16.8129 19.4667 16.8017 19.3111 16.7129 19.1333L16.1795 18.0667C17.0684 17.5778 17.8017 16.8889 18.3795 16C18.9573 15.1111 19.2462 14.1333 19.2462 13.0667V11.8C19.5573 11.6667 19.824 11.4556 20.0462 11.1667C20.2684 10.8778 20.3795 10.5333 20.3795 10.1333ZM9.57952 1.53333L6.71285 4.46666C6.40174 4.02222 6.26841 3.55555 6.31285 3.06666C6.35729 2.57777 6.55729 2.15555 6.91285 1.8C7.26841 1.44444 7.70174 1.24444 8.21285 1.2C8.72396 1.15555 9.17952 1.26666 9.57952 1.53333ZM2.11285 9.6H18.6462C18.7795 9.6 18.9017 9.65555 19.0129 9.76666C19.124 9.87778 19.1795 10.0111 19.1795 10.1667C19.1795 10.3222 19.124 10.4556 19.0129 10.5667C18.9017 10.6778 18.7795 10.7333 18.6462 10.7333H2.11285C1.97952 10.7333 1.85729 10.6778 1.74618 10.5667C1.63507 10.4556 1.57952 10.3222 1.57952 10.1667C1.57952 10.0111 1.63507 9.87778 1.74618 9.76666C1.85729 9.65555 1.97952 9.6 2.11285 9.6ZM18.0462 13.0667C18.0462 13.8667 17.8462 14.6 17.4462 15.2667C17.0462 15.9333 16.5129 16.4667 15.8462 16.8667C15.1795 17.2667 14.4462 17.4667 13.6462 17.4667H7.11285C6.31285 17.4667 5.57952 17.2667 4.91285 16.8667C4.24618 16.4667 3.71285 15.9333 3.31285 15.2667C2.91285 14.6 2.71285 13.8667 2.71285 13.0667V11.9333H18.0462V13.0667ZM8.84618 5.93333C8.84618 6.11111 8.90174 6.25555 9.01285 6.36666C9.12396 6.47777 9.25729 6.53333 9.41285 6.53333C9.56841 6.53333 9.70174 6.47777 9.81285 6.36666C9.92396 6.25555 9.97952 6.11111 9.97952 5.93333C9.97952 5.75555 9.92396 5.61111 9.81285 5.5C9.70174 5.38889 9.56841 5.33333 9.41285 5.33333C9.25729 5.33333 9.12396 5.38889 9.01285 5.5C8.90174 5.61111 8.84618 5.75555 8.84618 5.93333ZM10.5129 4.26666C10.5129 4.44444 10.5684 4.58889 10.6795 4.7C10.7906 4.81111 10.924 4.86666 11.0795 4.86666C11.2351 4.86666 11.3684 4.81111 11.4795 4.7C11.5906 4.58889 11.6462 4.44444 11.6462 4.26666C11.6462 4.08889 11.5906 3.94444 11.4795 3.83333C11.3684 3.72222 11.2351 3.66666 11.0795 3.66666C10.924 3.66666 10.7906 3.72222 10.6795 3.83333C10.5684 3.94444 10.5129 4.08889 10.5129 4.26666ZM10.9129 6.33333C10.9129 6.46666 10.9684 6.6 11.0795 6.73333C11.1906 6.86666 11.324 6.93333 11.4795 6.93333C11.6351 6.93333 11.7684 6.86666 11.8795 6.73333C11.9906 6.6 12.0462 6.45555 12.0462 6.3C12.0462 6.14444 11.9906 6.01111 11.8795 5.9C11.7684 5.78889 11.6351 5.73333 11.4795 5.73333C11.324 5.73333 11.1906 5.78889 11.0795 5.9C10.9684 6.01111 10.9129 6.15555 10.9129 6.33333Z" fill="white"/>
</g>
<defs>
<clipPath id="clip0_169_916">
<rect width="20" height="20" fill="white" transform="matrix(1 0 0 -1 0.379517 20)"/>
</clipPath>
</defs>
</svg>
