<svg width="20" height="14" viewBox="0 0 20 14" fill="none" xmlns="http://www.w3.org/2000/svg">
<path d="M17.5333 3.26667H8.73333C8.28889 3.26667 7.86667 3.4 7.46667 3.66667C7.37778 3 7.1 2.45556 6.63333 2.03333C6.16667 1.61111 5.62222 1.4 5 1.4C4.51111 1.4 4.06667 1.51111 3.66667 1.73333V0.733335C3.66667 0.555557 3.61111 0.411113 3.5 0.300001C3.38889 0.18889 3.24444 0.133335 3.06667 0.133335H0.6C0.422222 0.133335 0.277778 0.18889 0.166667 0.300001C0.0555556 0.411113 0 0.555557 0 0.733335V13.2667C0 13.4444 0.0555556 13.5889 0.166667 13.7C0.277778 13.8111 0.422222 13.8667 0.6 13.8667H3.06667C3.24444 13.8667 3.38889 13.8111 3.5 13.7C3.61111 13.5889 3.66667 13.4444 3.66667 13.2667V11.3333H16.3333V13.2667C16.3333 13.4444 16.3889 13.5889 16.5 13.7C16.6111 13.8111 16.7556 13.8667 16.9333 13.8667H19.4C19.5778 13.8667 19.7222 13.8111 19.8333 13.7C19.9444 13.5889 20 13.4444 20 13.2667V5.73333C20 5.06667 19.7556 4.48889 19.2667 4C18.7778 3.51111 18.2 3.26667 17.5333 3.26667ZM5 2.53333C5.35556 2.53333 5.65556 2.66667 5.9 2.93333C6.14444 3.2 6.26667 3.51111 6.26667 3.86667C6.26667 4.22222 6.14444 4.52222 5.9 4.76667C5.65556 5.01111 5.35556 5.13334 5 5.13334C4.64444 5.13334 4.33333 5.01111 4.06667 4.76667C3.8 4.52222 3.66667 4.22222 3.66667 3.86667C3.66667 3.51111 3.8 3.2 4.06667 2.93333C4.33333 2.66667 4.64444 2.53333 5 2.53333ZM3.66667 5.93333C4.06667 6.2 4.5 6.33333 4.96667 6.33333C5.43333 6.33333 5.86667 6.2 6.26667 5.93333V7.66667H3.66667V5.93333ZM18.8 12.6667H17.4667V10.7333C17.4667 10.6 17.4111 10.4778 17.3 10.3667C17.1889 10.2556 17.0667 10.2 16.9333 10.2H3.06667C2.93333 10.2 2.81111 10.2556 2.7 10.3667C2.58889 10.4778 2.53333 10.6 2.53333 10.7333V12.6667H1.2V1.33333H2.53333V8.26667C2.53333 8.4 2.58889 8.53334 2.7 8.66667C2.81111 8.8 2.93333 8.86667 3.06667 8.86667H18.8V12.6667ZM18.8 7.66667H7.46667V5.73333C7.46667 5.37778 7.58889 5.07778 7.83333 4.83333C8.07778 4.58889 8.37778 4.46667 8.73333 4.46667H17.5333C17.8889 4.46667 18.1889 4.58889 18.4333 4.83333C18.6778 5.07778 18.8 5.37778 18.8 5.73333V7.66667Z" fill="white"/>
</svg>
