<svg width="16" height="16" viewBox="0 0 16 16" fill="none" xmlns="http://www.w3.org/2000/svg">
<g clip-path="url(#clip0_169_990)">
<path d="M12.9067 2.02667C12.2311 1.38667 11.4755 0.888887 10.64 0.533332C9.80443 0.177776 8.92443 -1.90735e-06 7.99998 -1.90735e-06C7.07554 -1.90735e-06 6.18665 0.177776 5.33332 0.533332C4.47998 0.888887 3.73332 1.38667 3.09332 2.02667C2.45332 2.66667 1.95554 3.41333 1.59998 4.26667C1.24443 5.12 1.06665 6.00889 1.06665 6.93333C1.06665 7.85778 1.24443 8.73778 1.59998 9.57333C1.95554 10.4089 2.45332 11.1644 3.09332 11.84L6.77332 15.52C7.09332 15.84 7.49332 16 7.97332 16C8.45332 16 8.8711 15.84 9.22665 15.52L12.9067 11.84C13.5467 11.1644 14.0444 10.4089 14.4 9.57333C14.7555 8.73778 14.9333 7.85778 14.9333 6.93333C14.9333 6.00889 14.7555 5.12 14.4 4.26667C14.0444 3.41333 13.5467 2.66667 12.9067 2.02667ZM12.2133 11.1467L8.53332 14.8267C8.3911 14.9689 8.21332 15.04 7.99998 15.04C7.78665 15.04 7.59109 14.9689 7.41332 14.8267L3.73332 11.1467C3.16443 10.5778 2.73776 9.92889 2.45332 9.2C2.16887 8.47111 2.02665 7.70667 2.02665 6.90667C2.02665 6.10667 2.16887 5.34222 2.45332 4.61333C2.73776 3.88444 3.16443 3.24444 3.73332 2.69333C4.30221 2.14222 4.95109 1.71555 5.67998 1.41333C6.40887 1.11111 7.17332 0.959998 7.97332 0.959998C8.77332 0.959998 9.53776 1.11111 10.2667 1.41333C10.9955 1.71555 11.6444 2.13333 12.2133 2.66667C12.9955 3.44889 13.52 4.35555 13.7867 5.38667C14.0533 6.41778 14.0533 7.44889 13.7867 8.48C13.52 9.51111 12.9955 10.4 12.2133 11.1467ZM7.99998 4.42667C7.32443 4.42667 6.73776 4.67555 6.23998 5.17333C5.74221 5.67111 5.49332 6.25778 5.49332 6.93333C5.49332 7.60889 5.74221 8.18667 6.23998 8.66667C6.73776 9.14667 7.32443 9.38667 7.99998 9.38667C8.67554 9.38667 9.25332 9.14667 9.73332 8.66667C10.2133 8.18667 10.4533 7.60889 10.4533 6.93333C10.4533 6.25778 10.2133 5.67111 9.73332 5.17333C9.25332 4.67555 8.67554 4.42667 7.99998 4.42667ZM7.99998 8.48C7.57332 8.48 7.20887 8.32889 6.90665 8.02667C6.60443 7.72444 6.45332 7.36 6.45332 6.93333C6.45332 6.50667 6.60443 6.14222 6.90665 5.84C7.20887 5.53778 7.57332 5.38667 7.99998 5.38667C8.42665 5.38667 8.7911 5.53778 9.09332 5.84C9.39554 6.14222 9.54665 6.50667 9.54665 6.93333C9.54665 7.36 9.39554 7.72444 9.09332 8.02667C8.7911 8.32889 8.42665 8.48 7.99998 8.48Z" fill="#697565"/>
</g>
<defs>
<clipPath id="clip0_169_990">
<rect width="16" height="16" fill="white" transform="matrix(1 0 0 -1 0 16)"/>
</clipPath>
</defs>
</svg>
