<svg width="24" height="25" viewBox="0 0 24 25" fill="none" xmlns="http://www.w3.org/2000/svg">
<path d="M20 11.279H22C22 6.14903 18.127 2.28003 12.99 2.28003V4.28003C17.052 4.28003 20 7.22303 20 11.279Z" fill="white"/>
<path d="M13 8.28002C15.103 8.28002 16 9.17702 16 11.28H18C18 8.05502 16.225 6.28002 13 6.28002V8.28002ZM16.422 13.723C16.2298 13.5484 15.9773 13.4552 15.7178 13.4633C15.4582 13.4713 15.212 13.5798 15.031 13.766L12.638 16.227C12.062 16.117 10.904 15.756 9.71198 14.567C8.51998 13.374 8.15898 12.213 8.05198 11.641L10.511 9.24702C10.6974 9.06615 10.8061 8.81985 10.8141 8.56023C10.8222 8.30062 10.7289 8.04807 10.554 7.85602L6.85898 3.79302C6.68402 3.60038 6.44086 3.48353 6.18113 3.46728C5.9214 3.45104 5.66557 3.53668 5.46798 3.70602L3.29798 5.56702C3.12509 5.74054 3.0219 5.97147 3.00798 6.21602C2.99298 6.46602 2.70698 12.388 7.29898 16.982C11.305 20.987 16.323 21.28 17.705 21.28C17.907 21.28 18.031 21.274 18.064 21.272C18.3085 21.2583 18.5393 21.1547 18.712 20.981L20.572 18.81C20.7414 18.6126 20.8273 18.3568 20.8112 18.0971C20.7951 17.8374 20.6785 17.5941 20.486 17.419L16.422 13.723Z" fill="white"/>
</svg>
