<svg width="21" height="20" viewBox="0 0 21 20" fill="none" xmlns="http://www.w3.org/2000/svg">
<g clip-path="url(#clip0_169_920)">
<path d="M16.6257 18.8H14.2257C14.0924 18.8 13.959 18.8667 13.8257 19C13.6924 19.1333 13.6257 19.2778 13.6257 19.4333C13.6257 19.5889 13.6924 19.7222 13.8257 19.8333C13.959 19.9444 14.0924 20 14.2257 20H16.6257C16.8035 20 16.9479 19.9444 17.059 19.8333C17.1701 19.7222 17.2257 19.5889 17.2257 19.4333C17.2257 19.2778 17.1701 19.1333 17.059 19C16.9479 18.8667 16.8035 18.8 16.6257 18.8ZM11.8924 18.8H9.55903C9.38126 18.8 9.23681 18.8667 9.1257 19C9.01459 19.1333 8.95903 19.2778 8.95903 19.4333C8.95903 19.5889 9.01459 19.7222 9.1257 19.8333C9.23681 19.9444 9.38126 20 9.55903 20H11.8924C12.0701 20 12.2146 19.9444 12.3257 19.8333C12.4368 19.7222 12.4924 19.5889 12.4924 19.4333C12.4924 19.2778 12.4368 19.1333 12.3257 19C12.2146 18.8667 12.0701 18.8 11.8924 18.8ZM20.159 8.2C20.0257 8.2 19.8924 8.25556 19.759 8.36667C19.6257 8.47778 19.559 8.62222 19.559 8.8V11.1333C19.559 11.3111 19.6257 11.4556 19.759 11.5667C19.8924 11.6778 20.0368 11.7333 20.1924 11.7333C20.3479 11.7333 20.4813 11.6778 20.5924 11.5667C20.7035 11.4556 20.759 11.3111 20.759 11.1333V8.8C20.759 8.62222 20.7035 8.47778 20.5924 8.36667C20.4813 8.25556 20.3368 8.2 20.159 8.2ZM20.159 12.8667C20.0257 12.8667 19.8924 12.9333 19.759 13.0667C19.6257 13.2 19.559 13.3333 19.559 13.4667V15.8C19.559 15.9778 19.6257 16.1222 19.759 16.2333C19.8924 16.3444 20.0368 16.4 20.1924 16.4C20.3479 16.4 20.4813 16.3444 20.5924 16.2333C20.7035 16.1222 20.759 15.9778 20.759 15.8V13.4667C20.759 13.3333 20.7035 13.2 20.5924 13.0667C20.4813 12.9333 20.3368 12.8667 20.159 12.8667ZM7.2257 18.8H6.6257V18.2667C6.6257 18.0889 6.57014 17.9444 6.45903 17.8333C6.34792 17.7222 6.20348 17.6667 6.0257 17.6667C5.84792 17.6667 5.70348 17.7222 5.59237 17.8333C5.48126 17.9444 5.4257 18.0889 5.4257 18.2667V19.4C5.4257 19.5778 5.48126 19.7222 5.59237 19.8333C5.70348 19.9444 5.84792 20 6.0257 20H7.2257C7.35903 20 7.48126 19.9444 7.59237 19.8333C7.70348 19.7222 7.75903 19.5889 7.75903 19.4333C7.75903 19.2778 7.70348 19.1333 7.59237 19C7.48126 18.8667 7.35903 18.8 7.2257 18.8ZM20.159 4.66667H19.0257C18.8479 4.66667 18.7035 4.72222 18.5924 4.83333C18.4813 4.94444 18.4257 5.08889 18.4257 5.26667C18.4257 5.44444 18.4813 5.58889 18.5924 5.7C18.7035 5.81111 18.8479 5.86667 19.0257 5.86667H19.559V6.46667C19.559 6.6 19.6257 6.72222 19.759 6.83333C19.8924 6.94444 20.0368 7 20.1924 7C20.3479 7 20.4813 6.94444 20.5924 6.83333C20.7035 6.72222 20.759 6.6 20.759 6.46667V5.26667C20.759 5.08889 20.7035 4.94444 20.5924 4.83333C20.4813 4.72222 20.3368 4.66667 20.159 4.66667ZM20.159 17.6667C20.0257 17.6667 19.8924 17.7222 19.759 17.8333C19.6257 17.9444 19.559 18.0889 19.559 18.2667V18.8H19.0257C18.8479 18.8 18.7035 18.8667 18.5924 19C18.4813 19.1333 18.4257 19.2778 18.4257 19.4333C18.4257 19.5889 18.4813 19.7222 18.5924 19.8333C18.7035 19.9444 18.8479 20 19.0257 20H20.159C20.3368 20 20.4813 19.9444 20.5924 19.8333C20.7035 19.7222 20.759 19.5778 20.759 19.4V18.2667C20.759 18.0889 20.7035 17.9444 20.5924 17.8333C20.4813 17.7222 20.3368 17.6667 20.159 17.6667ZM16.6257 4.66667H16.0257V0.599998C16.0257 0.422222 15.959 0.277777 15.8257 0.166666C15.6924 0.0555553 15.559 -1.90735e-06 15.4257 -1.90735e-06H1.35903C1.18126 -1.90735e-06 1.03681 0.0555553 0.9257 0.166666C0.814589 0.277777 0.759033 0.422222 0.759033 0.599998V14.6667C0.759033 14.8 0.814589 14.9333 0.9257 15.0667C1.03681 15.2 1.18126 15.2667 1.35903 15.2667H5.4257V15.8C5.4257 15.9778 5.48126 16.1222 5.59237 16.2333C5.70348 16.3444 5.84792 16.4 6.0257 16.4C6.20348 16.4 6.34792 16.3444 6.45903 16.2333C6.57014 16.1222 6.6257 15.9778 6.6257 15.8V5.86667H16.6257C16.8035 5.86667 16.9479 5.81111 17.059 5.7C17.1701 5.58889 17.2257 5.44444 17.2257 5.26667C17.2257 5.08889 17.1701 4.94444 17.059 4.83333C16.9479 4.72222 16.8035 4.66667 16.6257 4.66667ZM14.8257 4.66667H6.0257C5.84792 4.66667 5.70348 4.72222 5.59237 4.83333C5.48126 4.94444 5.4257 5.08889 5.4257 5.26667V14.0667H1.95903V1.2H14.8257V4.66667Z" fill="white"/>
</g>
<defs>
<clipPath id="clip0_169_920">
<rect width="20" height="20" fill="white" transform="matrix(1 0 0 -1 0.759033 20)"/>
</clipPath>
</defs>
</svg>
